<svg width="81" height="75" viewBox="0 0 81 75" fill="none" xmlns="http://www.w3.org/2000/svg">
<path d="M51.2136 22.9062C51.1854 23.2014 51.0061 23.5243 50.5925 23.8524C46.5378 27.0697 42.4831 30.2869 38.4284 33.5041C37.5627 34.191 35.5085 34.3509 35.5085 32.7349C35.5085 26.7817 35.5085 20.8286 35.5085 14.8754C35.5085 13.413 37.7133 13.0526 38.5957 13.648C42.6504 16.3839 46.7052 19.1198 50.7599 21.8557C51.2242 22.169 51.3261 22.5445 51.2136 22.9062ZM64.9999 27.9806C63.715 58.7926 11.7932 52.4094 17.4273 19.9744C19.7913 6.36476 31.0923 -0.792661 43.5091 0.069809C57.4858 1.04068 64.7456 13.7545 64.9987 27.7767C64.9994 27.812 64.9763 27.8413 64.9717 27.8755C64.9768 27.9136 65.0017 27.9379 64.9999 27.9806ZM62.3944 28.3793C62.1835 18.4538 58.6638 7.73427 49.5821 3.46803C37.5455 -2.18628 23.364 4.4825 20.3052 18.2249C17.5693 30.5163 23.6535 41.4139 34.7858 45.3557C46.6529 49.5577 61.746 42.9456 62.3944 28.3793Z" fill="white"/>
<path d="M8.21875 69.7734V71H2.53125V69.7734H8.21875ZM2.82812 59.625V71H1.32031V59.625H2.82812ZM13.2344 71.1562C12.6458 71.1562 12.112 71.0573 11.6328 70.8594C11.1589 70.6562 10.75 70.3724 10.4062 70.0078C10.0677 69.6432 9.80729 69.2109 9.625 68.7109C9.44271 68.2109 9.35156 67.6641 9.35156 67.0703V66.7422C9.35156 66.0547 9.45312 65.4427 9.65625 64.9062C9.85938 64.3646 10.1354 63.9062 10.4844 63.5312C10.8333 63.1562 11.2292 62.8724 11.6719 62.6797C12.1146 62.487 12.5729 62.3906 13.0469 62.3906C13.651 62.3906 14.1719 62.4948 14.6094 62.7031C15.0521 62.9115 15.4141 63.2031 15.6953 63.5781C15.9766 63.9479 16.1849 64.3854 16.3203 64.8906C16.4557 65.3906 16.5234 65.9375 16.5234 66.5312V67.1797H10.2109V66H15.0781V65.8906C15.0573 65.5156 14.9792 65.151 14.8438 64.7969C14.7135 64.4427 14.5052 64.151 14.2188 63.9219C13.9323 63.6927 13.5417 63.5781 13.0469 63.5781C12.7188 63.5781 12.4167 63.6484 12.1406 63.7891C11.8646 63.9245 11.6276 64.1276 11.4297 64.3984C11.2318 64.6693 11.0781 65 10.9688 65.3906C10.8594 65.7812 10.8047 66.2318 10.8047 66.7422V67.0703C10.8047 67.4714 10.8594 67.849 10.9688 68.2031C11.0833 68.5521 11.2474 68.8594 11.4609 69.125C11.6797 69.3906 11.9427 69.599 12.25 69.75C12.5625 69.901 12.9167 69.9766 13.3125 69.9766C13.8229 69.9766 14.2552 69.8724 14.6094 69.6641C14.9635 69.4557 15.2734 69.1771 15.5391 68.8281L16.4141 69.5234C16.2318 69.7995 16 70.0625 15.7188 70.3125C15.4375 70.5625 15.0911 70.7656 14.6797 70.9219C14.2734 71.0781 13.7917 71.1562 13.2344 71.1562ZM23.1953 69.5547V65.2031C23.1953 64.8698 23.1276 64.5807 22.9922 64.3359C22.862 64.0859 22.6641 63.8932 22.3984 63.7578C22.1328 63.6224 21.8047 63.5547 21.4141 63.5547C21.0495 63.5547 20.7292 63.6172 20.4531 63.7422C20.1823 63.8672 19.9688 64.0312 19.8125 64.2344C19.6615 64.4375 19.5859 64.6562 19.5859 64.8906H18.1406C18.1406 64.5885 18.2188 64.2891 18.375 63.9922C18.5312 63.6953 18.7552 63.4271 19.0469 63.1875C19.3438 62.9427 19.6979 62.75 20.1094 62.6094C20.526 62.4635 20.9896 62.3906 21.5 62.3906C22.1146 62.3906 22.6562 62.4948 23.125 62.7031C23.599 62.9115 23.9688 63.2266 24.2344 63.6484C24.5052 64.0651 24.6406 64.5885 24.6406 65.2188V69.1562C24.6406 69.4375 24.6641 69.737 24.7109 70.0547C24.763 70.3724 24.8385 70.6458 24.9375 70.875V71H23.4297C23.3568 70.8333 23.2995 70.612 23.2578 70.3359C23.2161 70.0547 23.1953 69.7943 23.1953 69.5547ZM23.4453 65.875L23.4609 66.8906H22C21.5885 66.8906 21.2214 66.9245 20.8984 66.9922C20.5755 67.0547 20.3047 67.151 20.0859 67.2812C19.8672 67.4115 19.7005 67.5755 19.5859 67.7734C19.4714 67.9661 19.4141 68.1927 19.4141 68.4531C19.4141 68.7188 19.474 68.9609 19.5938 69.1797C19.7135 69.3984 19.8932 69.5729 20.1328 69.7031C20.3776 69.8281 20.6771 69.8906 21.0312 69.8906C21.474 69.8906 21.8646 69.7969 22.2031 69.6094C22.5417 69.4219 22.8099 69.1927 23.0078 68.9219C23.2109 68.651 23.3203 68.388 23.3359 68.1328L23.9531 68.8281C23.9167 69.0469 23.8177 69.2891 23.6562 69.5547C23.4948 69.8203 23.2786 70.0755 23.0078 70.3203C22.7422 70.5599 22.4245 70.7604 22.0547 70.9219C21.6901 71.0781 21.2786 71.1562 20.8203 71.1562C20.2474 71.1562 19.7448 71.0443 19.3125 70.8203C18.8854 70.5964 18.5521 70.2969 18.3125 69.9219C18.0781 69.5417 17.9609 69.1172 17.9609 68.6484C17.9609 68.1953 18.0495 67.7969 18.2266 67.4531C18.4036 67.1042 18.6589 66.8151 18.9922 66.5859C19.3255 66.3516 19.7266 66.1745 20.1953 66.0547C20.6641 65.9349 21.1875 65.875 21.7656 65.875H23.4453ZM28.3594 63.875V71H26.9141V62.5469H28.3203L28.3594 63.875ZM31 62.5L30.9922 63.8438C30.8724 63.8177 30.7578 63.8021 30.6484 63.7969C30.5443 63.7865 30.4245 63.7812 30.2891 63.7812C29.9557 63.7812 29.6615 63.8333 29.4062 63.9375C29.151 64.0417 28.9349 64.1875 28.7578 64.375C28.5807 64.5625 28.4401 64.7865 28.3359 65.0469C28.237 65.3021 28.1719 65.5833 28.1406 65.8906L27.7344 66.125C27.7344 65.6146 27.7839 65.1354 27.8828 64.6875C27.987 64.2396 28.1458 63.8438 28.3594 63.5C28.5729 63.151 28.8438 62.8802 29.1719 62.6875C29.5052 62.4896 29.901 62.3906 30.3594 62.3906C30.4635 62.3906 30.5833 62.4036 30.7188 62.4297C30.8542 62.4505 30.9479 62.474 31 62.5ZM33.7812 64.3516V71H32.3359V62.5469H33.7031L33.7812 64.3516ZM33.4375 66.4531L32.8359 66.4297C32.8411 65.8516 32.9271 65.3177 33.0938 64.8281C33.2604 64.3333 33.4948 63.9036 33.7969 63.5391C34.099 63.1745 34.4583 62.8932 34.875 62.6953C35.2969 62.4922 35.763 62.3906 36.2734 62.3906C36.6901 62.3906 37.0651 62.4479 37.3984 62.5625C37.7318 62.6719 38.0156 62.849 38.25 63.0938C38.4896 63.3385 38.6719 63.6562 38.7969 64.0469C38.9219 64.4323 38.9844 64.9036 38.9844 65.4609V71H37.5312V65.4453C37.5312 65.0026 37.4661 64.6484 37.3359 64.3828C37.2057 64.112 37.0156 63.9167 36.7656 63.7969C36.5156 63.6719 36.2083 63.6094 35.8438 63.6094C35.4844 63.6094 35.1562 63.6849 34.8594 63.8359C34.5677 63.987 34.3151 64.1953 34.1016 64.4609C33.8932 64.7266 33.7292 65.0312 33.6094 65.375C33.4948 65.7135 33.4375 66.0729 33.4375 66.4531ZM46.5859 64.2266V71H45.1328V62.5469H46.5078L46.5859 64.2266ZM46.2891 66.4531L45.6172 66.4297C45.6224 65.8516 45.6979 65.3177 45.8438 64.8281C45.9896 64.3333 46.2057 63.9036 46.4922 63.5391C46.7786 63.1745 47.1354 62.8932 47.5625 62.6953C47.9896 62.4922 48.4844 62.3906 49.0469 62.3906C49.4427 62.3906 49.8073 62.4479 50.1406 62.5625C50.474 62.6719 50.763 62.8464 51.0078 63.0859C51.2526 63.3255 51.4427 63.6328 51.5781 64.0078C51.7135 64.3828 51.7812 64.8359 51.7812 65.3672V71H50.3359V65.4375C50.3359 64.9948 50.2604 64.6406 50.1094 64.375C49.9635 64.1094 49.7552 63.9167 49.4844 63.7969C49.2135 63.6719 48.8958 63.6094 48.5312 63.6094C48.1042 63.6094 47.7474 63.6849 47.4609 63.8359C47.1745 63.987 46.9453 64.1953 46.7734 64.4609C46.6016 64.7266 46.4766 65.0312 46.3984 65.375C46.3255 65.7135 46.2891 66.0729 46.2891 66.4531ZM51.7656 65.6562L50.7969 65.9531C50.8021 65.4896 50.8776 65.0443 51.0234 64.6172C51.1745 64.1901 51.3906 63.8099 51.6719 63.4766C51.9583 63.1432 52.3099 62.8802 52.7266 62.6875C53.1432 62.4896 53.6198 62.3906 54.1562 62.3906C54.6094 62.3906 55.0104 62.4505 55.3594 62.5703C55.7135 62.6901 56.0104 62.875 56.25 63.125C56.4948 63.3698 56.6797 63.6849 56.8047 64.0703C56.9297 64.4557 56.9922 64.9141 56.9922 65.4453V71H55.5391V65.4297C55.5391 64.9557 55.4635 64.5885 55.3125 64.3281C55.1667 64.0625 54.9583 63.8776 54.6875 63.7734C54.4219 63.6641 54.1042 63.6094 53.7344 63.6094C53.4167 63.6094 53.1354 63.6641 52.8906 63.7734C52.6458 63.8828 52.4401 64.0339 52.2734 64.2266C52.1068 64.4141 51.9792 64.6302 51.8906 64.875C51.8073 65.1198 51.7656 65.3802 51.7656 65.6562ZM58.7969 66.8672V66.6875C58.7969 66.0781 58.8854 65.513 59.0625 64.9922C59.2396 64.4661 59.4948 64.0104 59.8281 63.625C60.1615 63.2344 60.5651 62.9323 61.0391 62.7188C61.513 62.5 62.0443 62.3906 62.6328 62.3906C63.2266 62.3906 63.7604 62.5 64.2344 62.7188C64.7135 62.9323 65.1198 63.2344 65.4531 63.625C65.7917 64.0104 66.0495 64.4661 66.2266 64.9922C66.4036 65.513 66.4922 66.0781 66.4922 66.6875V66.8672C66.4922 67.4766 66.4036 68.0417 66.2266 68.5625C66.0495 69.0833 65.7917 69.5391 65.4531 69.9297C65.1198 70.3151 64.7161 70.6172 64.2422 70.8359C63.7734 71.0495 63.2422 71.1562 62.6484 71.1562C62.0547 71.1562 61.5208 71.0495 61.0469 70.8359C60.5729 70.6172 60.1667 70.3151 59.8281 69.9297C59.4948 69.5391 59.2396 69.0833 59.0625 68.5625C58.8854 68.0417 58.7969 67.4766 58.7969 66.8672ZM60.2422 66.6875V66.8672C60.2422 67.2891 60.2917 67.6875 60.3906 68.0625C60.4896 68.4323 60.638 68.7604 60.8359 69.0469C61.0391 69.3333 61.2917 69.5599 61.5938 69.7266C61.8958 69.888 62.2474 69.9688 62.6484 69.9688C63.0443 69.9688 63.3906 69.888 63.6875 69.7266C63.9896 69.5599 64.2396 69.3333 64.4375 69.0469C64.6354 68.7604 64.7839 68.4323 64.8828 68.0625C64.987 67.6875 65.0391 67.2891 65.0391 66.8672V66.6875C65.0391 66.2708 64.987 65.8776 64.8828 65.5078C64.7839 65.1328 64.6328 64.8021 64.4297 64.5156C64.2318 64.224 63.9818 63.9948 63.6797 63.8281C63.3828 63.6615 63.0339 63.5781 62.6328 63.5781C62.237 63.5781 61.888 63.6615 61.5859 63.8281C61.2891 63.9948 61.0391 64.224 60.8359 64.5156C60.638 64.8021 60.4896 65.1328 60.3906 65.5078C60.2917 65.8776 60.2422 66.2708 60.2422 66.6875ZM69.75 63.875V71H68.3047V62.5469H69.7109L69.75 63.875ZM72.3906 62.5L72.3828 63.8438C72.263 63.8177 72.1484 63.8021 72.0391 63.7969C71.9349 63.7865 71.8151 63.7812 71.6797 63.7812C71.3464 63.7812 71.0521 63.8333 70.7969 63.9375C70.5417 64.0417 70.3255 64.1875 70.1484 64.375C69.9714 64.5625 69.8307 64.7865 69.7266 65.0469C69.6276 65.3021 69.5625 65.5833 69.5312 65.8906L69.125 66.125C69.125 65.6146 69.1745 65.1354 69.2734 64.6875C69.3776 64.2396 69.5365 63.8438 69.75 63.5C69.9635 63.151 70.2344 62.8802 70.5625 62.6875C70.8958 62.4896 71.2917 62.3906 71.75 62.3906C71.8542 62.3906 71.974 62.4036 72.1094 62.4297C72.2448 62.4505 72.3385 62.474 72.3906 62.5ZM77.0781 71.1562C76.4896 71.1562 75.9557 71.0573 75.4766 70.8594C75.0026 70.6562 74.5938 70.3724 74.25 70.0078C73.9115 69.6432 73.651 69.2109 73.4688 68.7109C73.2865 68.2109 73.1953 67.6641 73.1953 67.0703V66.7422C73.1953 66.0547 73.2969 65.4427 73.5 64.9062C73.7031 64.3646 73.9792 63.9062 74.3281 63.5312C74.6771 63.1562 75.0729 62.8724 75.5156 62.6797C75.9583 62.487 76.4167 62.3906 76.8906 62.3906C77.4948 62.3906 78.0156 62.4948 78.4531 62.7031C78.8958 62.9115 79.2578 63.2031 79.5391 63.5781C79.8203 63.9479 80.0286 64.3854 80.1641 64.8906C80.2995 65.3906 80.3672 65.9375 80.3672 66.5312V67.1797H74.0547V66H78.9219V65.8906C78.901 65.5156 78.8229 65.151 78.6875 64.7969C78.5573 64.4427 78.349 64.151 78.0625 63.9219C77.776 63.6927 77.3854 63.5781 76.8906 63.5781C76.5625 63.5781 76.2604 63.6484 75.9844 63.7891C75.7083 63.9245 75.4714 64.1276 75.2734 64.3984C75.0755 64.6693 74.9219 65 74.8125 65.3906C74.7031 65.7812 74.6484 66.2318 74.6484 66.7422V67.0703C74.6484 67.4714 74.7031 67.849 74.8125 68.2031C74.9271 68.5521 75.0911 68.8594 75.3047 69.125C75.5234 69.3906 75.7865 69.599 76.0938 69.75C76.4062 69.901 76.7604 69.9766 77.1562 69.9766C77.6667 69.9766 78.099 69.8724 78.4531 69.6641C78.8073 69.4557 79.1172 69.1771 79.3828 68.8281L80.2578 69.5234C80.0755 69.7995 79.8438 70.0625 79.5625 70.3125C79.2812 70.5625 78.9349 70.7656 78.5234 70.9219C78.1172 71.0781 77.6354 71.1562 77.0781 71.1562Z" fill="white"/>
</svg>
